<svg width="130" height="120" viewBox="0 0 130 120" fill="none" xmlns="http://www.w3.org/2000/svg">
<g clip-path="url(#clip0_55_681)">
<rect width="130" height="120" rx="22" fill="#0A9F76"/>
<g filter="url(#filter0_d_55_681)">
<path fill-rule="evenodd" clip-rule="evenodd" d="M38.2805 67.7852C41.6965 67.6756 45.1018 64.1928 44.9366 59.048C44.7715 53.9031 41.1499 50.646 37.7339 50.7556C34.3178 50.8653 30.9126 54.348 31.0777 59.4929C31.2429 64.6377 34.8645 67.8949 38.2805 67.7852ZM38.3799 70.8815C43.917 70.7038 48.2388 65.3612 48.0329 58.9486C47.8271 52.536 43.1715 47.4816 37.6345 47.6593C32.0974 47.8371 27.7756 53.1796 27.9814 59.5922C28.1873 66.0049 32.8428 71.0593 38.3799 70.8815Z" fill="white"/>
<path fill-rule="evenodd" clip-rule="evenodd" d="M89.1528 68.9003C94.6345 68.7244 99.2357 63.7985 99.034 57.5156C98.8323 51.2328 93.9247 46.6122 88.443 46.7881C82.9612 46.9641 78.3601 51.89 78.5618 58.1728C78.7634 64.4556 83.671 69.0763 89.1528 68.9003ZM89.2522 71.9966C96.6154 71.7603 102.381 65.2324 102.13 57.4163C101.879 49.6001 95.7069 43.4555 88.3436 43.6918C80.9803 43.9282 75.2146 50.456 75.4655 58.2722C75.7163 66.0883 81.8889 72.233 89.2522 71.9966Z" fill="white"/>
<path fill-rule="evenodd" clip-rule="evenodd" d="M49.1858 32.5212L49.9181 33.8861C52.9488 39.5352 53.0597 43.8007 51.7515 47.0967C50.6099 49.9728 48.4451 51.885 47.0423 53.1242C46.8974 53.2521 46.7607 53.3729 46.6341 53.4868L45.4826 54.5227L43.4107 52.2195L44.5623 51.1836C44.6959 51.0635 44.8319 50.9424 44.9696 50.8198C46.4047 49.542 48.0181 48.1055 48.8721 45.9538C49.7593 43.7186 49.9082 40.4205 47.1883 35.3507L46.456 33.9858L49.1858 32.5212Z" fill="white"/>
<path fill-rule="evenodd" clip-rule="evenodd" d="M78.4253 35.5415C78.6479 36.3675 78.1587 37.2176 77.3327 37.4401L52.1986 44.2119C51.3726 44.4345 50.5226 43.9453 50.3 43.1193C50.0775 42.2933 50.5667 41.4433 51.3927 41.2207L76.5268 34.4489C77.3528 34.2263 78.2028 34.7155 78.4253 35.5415Z" fill="white"/>
<path fill-rule="evenodd" clip-rule="evenodd" d="M81.1743 39.2499C81.7642 39.8694 81.7403 40.8498 81.1207 41.4398L60.4262 61.1461L37.7628 61.5843C36.9075 61.6008 36.2007 60.9208 36.1842 60.0655C36.1676 59.2102 36.8476 58.5035 37.7029 58.4869L59.1621 58.0721L78.9844 39.1963C79.6039 38.6064 80.5844 38.6304 81.1743 39.2499Z" fill="white"/>
<path fill-rule="evenodd" clip-rule="evenodd" d="M73.7689 24.9115C74.554 24.5716 75.4659 24.9325 75.8058 25.7176L89.4966 57.3402C89.8365 58.1253 89.4756 59.0372 88.6905 59.3771C87.9055 59.7169 86.9936 59.3561 86.6537 58.571L72.9629 26.9484C72.623 26.1633 72.9839 25.2514 73.7689 24.9115Z" fill="white"/>
<path fill-rule="evenodd" clip-rule="evenodd" d="M82.6948 23.8979C82.9028 24.7276 82.3988 25.569 81.5691 25.777L67.1191 29.4002C66.2893 29.6082 65.448 29.1042 65.2399 28.2745C65.0319 27.4447 65.5359 26.6034 66.3657 26.3953L80.8156 22.7721C81.6454 22.5641 82.4867 23.0681 82.6948 23.8979Z" fill="white"/>
<path fill-rule="evenodd" clip-rule="evenodd" d="M38.471 27.4824C38.7172 26.8971 39.2956 26.5213 39.9304 26.5343C42.9147 26.5952 45.3686 26.7528 47.8973 27.3671C50.4341 27.9832 52.9697 29.0392 56.1736 30.8125C56.7606 31.1374 57.0717 31.8033 56.9442 32.462C56.8168 33.1207 56.2797 33.6224 55.6139 33.7049L40.822 35.5369C40.2948 35.6022 39.7709 35.3928 39.434 34.9821C38.4754 33.8136 37.8197 32.67 37.6792 31.3326C37.5419 30.0257 37.9262 28.7777 38.471 27.4824ZM40.96 29.6598C40.77 30.2591 40.7243 30.6678 40.7602 31.0089C40.797 31.359 40.9347 31.7688 41.3286 32.3526L50.0046 31.2781C49.0093 30.8906 48.0801 30.5994 47.1661 30.3774C45.2557 29.9134 43.3539 29.737 40.96 29.6598Z" fill="white"/>
<path fill-rule="evenodd" clip-rule="evenodd" d="M17.7643 58.7515L17.7978 58.7562L17.9375 58.7749L18.2746 58.8195L18.7032 58.8712C19.0161 58.9088 19.4043 58.9539 19.8642 59.0042L20.6141 59.0863L23.1569 59.3337L22.8582 62.4172L21.068 62.2436L21.067 62.2522L20.2944 62.1677L19.5759 62.0972L19.5767 62.0892L19.5273 62.0837C19.366 62.0661 19.2132 62.0491 19.0689 62.0327L19.0667 62.0492L17.8862 61.893L16.7949 61.7616L16.7971 61.7435L15.7881 61.6009L16.2216 58.5335L17.7553 58.7503L17.7643 58.7515ZM113.606 52.865L112.135 53.3501L112.12 53.3549L112.082 53.3673L111.938 53.4138L111.911 53.4223L111.915 53.4341L111.296 53.6192L110.463 53.886L110.457 53.8701L110.431 53.8781C110.307 53.9152 110.176 53.954 110.04 53.9944L110.042 54.0023L108.934 54.3167L107.816 54.6401L107.814 54.6335L106.873 54.8993L106.031 51.918L108.08 51.3386L108.443 51.2337C108.854 51.1146 109.222 51.0063 109.543 50.9102L110.38 50.6598L110.993 50.4634L111.125 50.4211L111.156 50.4108L111.163 50.4085L111.165 50.408L112.636 49.9229L113.606 52.865Z" fill="white"/>
<path fill-rule="evenodd" clip-rule="evenodd" d="M59.6207 9.85621L59.8448 9.86797C64.4775 10.111 69.3124 10.2869 74.0595 10.4595L74.0596 10.4595L74.0599 10.4595C80.4383 10.6915 86.6583 10.9177 92.0167 11.2935C96.7109 11.6226 100.867 12.0725 104.017 12.7637C105.588 13.1086 106.979 13.5281 108.084 14.0591C109.15 14.5718 110.186 15.2999 110.693 16.3954C111.969 19.1527 112.223 22.3892 112.524 28.2666C112.564 29.0552 112.605 29.8966 112.65 30.7966C112.939 36.7096 113.353 45.1561 114.486 57.8463C115.247 66.3694 112.459 74.1432 107.981 80.9144L104.159 80.9921C109.069 74.2341 112.149 66.5035 111.4 58.1218C110.261 45.3676 109.845 36.8652 109.555 30.9482L109.555 30.9479L109.555 30.9452L109.554 30.9176C109.51 30.0304 109.47 29.2015 109.43 28.4251C109.12 22.3772 108.855 19.8013 107.881 17.6964C107.826 17.5763 107.577 17.2528 106.742 16.8512C105.945 16.468 104.816 16.1106 103.353 15.7896C100.434 15.149 96.4633 14.7108 91.8001 14.3838C86.455 14.009 80.3609 13.7881 74.0543 13.5596C69.3823 13.3903 64.5936 13.2168 59.9066 12.9733C55.2715 14.0822 50.6119 15.1195 46.1226 16.1188C40.1401 17.4504 34.4601 18.7148 29.5438 19.9918C25.2318 21.1118 21.6304 22.2126 19.0455 23.3308C17.7508 23.8908 16.7767 24.4278 16.1114 24.9323C15.4226 25.4547 15.2313 25.816 15.19 25.9744C14.6045 28.2187 14.8003 30.8008 15.5669 36.8079C15.6664 37.5878 15.7747 38.4208 15.8906 39.3129C16.6541 45.1876 17.7511 53.6293 18.8902 66.3838C19.2099 69.9639 20.1679 73.3047 21.613 76.4089L17.9766 75.7992C16.8509 72.9452 16.094 69.8999 15.8045 66.6593C14.6712 53.9693 13.5815 45.5832 12.8186 39.7125C12.7025 38.8188 12.5939 37.9835 12.4939 37.2001C11.7489 31.3623 11.4255 28.1321 12.1924 25.1924C12.4892 24.0548 13.3179 23.1629 14.2394 22.464C15.1845 21.7473 16.411 21.0951 17.8155 20.4875C20.6292 19.2704 24.4213 18.1217 28.765 16.9934C33.6969 15.7123 39.4996 14.4198 45.5539 13.0713C50.1156 12.0552 54.82 11.0073 59.4025 9.90853L59.6207 9.85621ZM20.5521 81.0233C25.4073 89.1758 33.2407 95.4877 41.0435 100.077C47.0304 103.598 53.101 106.169 58.0287 107.831C60.493 108.662 62.6869 109.271 64.4561 109.658C66.1624 110.032 67.6392 110.238 68.5819 110.154C69.5196 110.071 70.9601 109.606 72.6154 108.933C74.3311 108.236 76.4458 107.243 78.8009 105.983C83.5101 103.463 89.2364 99.8416 94.7128 95.2995C98.2839 92.3378 101.791 88.9476 104.842 85.1825L100.468 85.5385C98.0832 88.1918 95.4557 90.6587 92.7352 92.9151C87.4425 97.3047 81.8947 100.814 77.3391 103.252C75.0619 104.47 73.0465 105.414 71.4488 106.063C69.7907 106.737 68.7345 107.03 68.3064 107.069C67.8833 107.106 66.8209 107.005 65.1189 106.632C63.4797 106.273 61.3963 105.697 59.0187 104.895C54.2627 103.291 48.3913 100.805 42.6141 97.4069C35.7647 93.3782 29.1866 88.1545 24.6816 81.7041L20.5521 81.0233Z" fill="white"/>
<path fill-rule="evenodd" clip-rule="evenodd" d="M11.3576 71.8276C11.3577 71.8276 11.3574 71.8275 11.3576 71.8276L11.3635 71.8293L11.3906 71.837L11.5081 71.8698C11.6146 71.8992 11.7778 71.9436 11.9979 72.0015C12.4382 72.1173 13.1065 72.2873 14.0065 72.5006C15.8065 72.9271 18.533 73.5266 22.2147 74.2116C29.5782 75.5815 40.7629 77.2931 55.9982 78.6453C71.1735 79.9922 86.6017 79.5826 98.2527 78.8326C104.074 78.4578 108.943 77.9987 112.355 77.6336C114.061 77.4511 115.402 77.2921 116.315 77.1789C116.771 77.1224 117.12 77.0773 117.355 77.0464C117.472 77.031 117.56 77.0192 117.619 77.0112L117.685 77.0023L117.704 76.9996L117.918 78.5338C118.131 80.068 118.13 80.0681 118.13 80.0681L118.105 80.0715L118.034 80.0812C117.972 80.0896 117.88 80.1019 117.759 80.1179C117.517 80.1497 117.16 80.1957 116.696 80.2533C115.767 80.3684 114.409 80.5294 112.685 80.7139C109.237 81.0829 104.324 81.5461 98.4517 81.9241C86.7161 82.6795 71.1159 83.0971 55.7243 81.731C40.3926 80.3703 29.1101 78.6455 21.6481 77.2572C17.9171 76.5631 15.1414 75.9532 13.2922 75.515C12.3676 75.2959 11.6747 75.1197 11.2098 74.9974C10.9774 74.9363 10.802 74.8886 10.6832 74.8558C10.6238 74.8394 10.5785 74.8267 10.5474 74.8179L10.5112 74.8076L10.501 74.8047L10.4979 74.8038C10.4975 74.8037 10.4961 74.8033 10.9268 73.3154L10.4961 74.8033C9.67434 74.5653 9.20107 73.7064 9.43898 72.8846C9.67684 72.0631 10.536 71.59 11.3576 71.8276ZM117.918 78.5338L118.13 80.0681C118.977 79.9506 119.57 79.1683 119.452 78.321C119.335 77.4736 118.552 76.8821 117.704 76.9996L117.918 78.5338Z" fill="white"/>
</g>
</g>
<defs>
<filter id="filter0_d_55_681" x="5.77744" y="5.4" width="117.29" height="113.077" filterUnits="userSpaceOnUse" color-interpolation-filters="sRGB">
<feFlood flood-opacity="0" result="BackgroundImageFix"/>
<feColorMatrix in="SourceAlpha" type="matrix" values="0 0 0 0 0 0 0 0 0 0 0 0 0 0 0 0 0 0 127 0" result="hardAlpha"/>
<feOffset dy="2"/>
<feGaussianBlur stdDeviation="1.8"/>
<feComposite in2="hardAlpha" operator="out"/>
<feColorMatrix type="matrix" values="0 0 0 0 0 0 0 0 0 0 0 0 0 0 0 0 0 0 0.25 0"/>
<feBlend mode="normal" in2="BackgroundImageFix" result="effect1_dropShadow_55_681"/>
<feBlend mode="normal" in="SourceGraphic" in2="effect1_dropShadow_55_681" result="shape"/>
</filter>
<clipPath id="clip0_55_681">
<rect width="130" height="120" fill="white"/>
</clipPath>
</defs>
</svg>
