<svg width="417" height="106" viewBox="0 0 417 106" fill="none" xmlns="http://www.w3.org/2000/svg">
<path fill-rule="evenodd" clip-rule="evenodd" d="M43.8157 59.9497C46.502 59.8634 49.1799 57.1247 49.05 53.0788C48.9202 49.033 46.0722 46.4716 43.3859 46.5578C40.6996 46.644 38.0217 49.3828 38.1516 53.4287C38.2814 57.4745 41.1294 60.0359 43.8157 59.9497ZM43.8939 62.3846C48.2482 62.2448 51.6468 58.0435 51.4849 53.0007C51.323 47.9579 47.662 43.9832 43.3077 44.1229C38.9534 44.2627 35.5548 48.464 35.7167 53.5068C35.8786 58.5496 39.5396 62.5243 43.8939 62.3846Z" fill="black"/>
<path fill-rule="evenodd" clip-rule="evenodd" d="M83.8209 60.8265C88.1317 60.6882 91.75 56.8145 91.5914 51.8738C91.4328 46.9331 87.5735 43.2994 83.2628 43.4378C78.952 43.5762 75.3337 47.4498 75.4923 52.3906C75.6509 57.3313 79.5102 60.9649 83.8209 60.8265ZM83.8991 63.2614C89.6895 63.0756 94.2236 57.9421 94.0263 51.7956C93.829 45.6491 88.975 40.8171 83.1846 41.0029C77.3942 41.1888 72.8601 46.3222 73.0574 52.4687C73.2547 58.6152 78.1087 63.4473 83.8991 63.2614Z" fill="black"/>
<path fill-rule="evenodd" clip-rule="evenodd" d="M52.3915 32.2186L52.9674 33.2919C55.3507 37.7342 55.4379 41.0885 54.4091 43.6805C53.5114 45.9422 51.8091 47.446 50.7059 48.4204C50.592 48.521 50.4845 48.616 50.3849 48.7056L49.4793 49.5202L47.8501 47.709L48.7557 46.8944C48.8607 46.7999 48.9677 46.7047 49.0759 46.6083C50.2045 45.6035 51.4732 44.4738 52.1448 42.7817C52.8425 41.024 52.9596 38.4305 50.8207 34.4436L50.2448 33.3703L52.3915 32.2186Z" fill="black"/>
<path fill-rule="evenodd" clip-rule="evenodd" d="M75.385 34.5937C75.5601 35.2432 75.1754 35.9117 74.5258 36.0867L54.7607 41.412C54.1112 41.587 53.4427 41.2023 53.2677 40.5527C53.0927 39.9032 53.4774 39.2347 54.127 39.0597L73.892 33.7344C74.5416 33.5594 75.21 33.9441 75.385 34.5937Z" fill="black"/>
<path fill-rule="evenodd" clip-rule="evenodd" d="M77.5468 37.5098C78.0107 37.997 77.9918 38.768 77.5046 39.2319L61.2307 54.7287L43.4085 55.0733C42.736 55.0863 42.1802 54.5516 42.1672 53.879C42.1542 53.2064 42.6889 52.6506 43.3615 52.6376L60.2367 52.3114L75.8247 37.4677C76.3118 37.0038 77.0828 37.0227 77.5468 37.5098Z" fill="black"/>
<path fill-rule="evenodd" clip-rule="evenodd" d="M71.7234 26.2344C72.3407 25.9671 73.0578 26.2509 73.3251 26.8683L84.0913 51.7359C84.3586 52.3532 84.0748 53.0703 83.4575 53.3376C82.8401 53.6049 82.123 53.3211 81.8557 52.7037L71.0895 27.8361C70.8222 27.2188 71.106 26.5017 71.7234 26.2344Z" fill="black"/>
<path fill-rule="evenodd" clip-rule="evenodd" d="M78.7424 25.4373C78.906 26.0898 78.5097 26.7514 77.8572 26.915L66.4939 29.7642C65.8414 29.9278 65.1798 29.5315 65.0162 28.879C64.8526 28.2264 65.2489 27.5648 65.9014 27.4012L77.2647 24.552C77.9172 24.3884 78.5788 24.7847 78.7424 25.4373Z" fill="black"/>
<path fill-rule="evenodd" clip-rule="evenodd" d="M43.9656 28.2561C44.1592 27.7958 44.6141 27.5003 45.1133 27.5105C47.4601 27.5584 49.3897 27.6824 51.3783 28.1654C53.3732 28.6499 55.3672 29.4804 57.8867 30.8748C58.3483 31.1303 58.5929 31.654 58.4927 32.172C58.3925 32.69 57.9701 33.0845 57.4465 33.1494L45.8144 34.59C45.3998 34.6413 44.9879 34.4767 44.7229 34.1537C43.9691 33.2348 43.4535 32.3356 43.343 31.2839C43.235 30.2561 43.5372 29.2747 43.9656 28.2561ZM45.9229 29.9684C45.7735 30.4397 45.7376 30.761 45.7658 31.0293C45.7947 31.3046 45.903 31.6269 46.2128 32.0859L53.0355 31.2409C52.2528 30.9363 51.5221 30.7073 50.8033 30.5327C49.301 30.1678 47.8054 30.0291 45.9229 29.9684Z" fill="black"/>
<path fill-rule="evenodd" clip-rule="evenodd" d="M27.682 52.8457L27.7084 52.8493L27.8182 52.8641L28.0833 52.8991L28.4203 52.9397C28.6664 52.9694 28.9717 53.0048 29.3333 53.0444L29.923 53.1089L31.9226 53.3035L31.6878 55.7283L30.2799 55.5918L30.2792 55.5986L29.6716 55.5321L29.1066 55.4766L29.1072 55.4703L29.0684 55.4661C28.9415 55.4522 28.8213 55.4388 28.7079 55.426L28.7062 55.4389L27.7779 55.3161L26.9196 55.2127L26.9214 55.1985L26.1279 55.0864L26.4689 52.6742L27.6749 52.8447L27.682 52.8457ZM103.05 48.2166L101.894 48.5981L101.882 48.6019L101.852 48.6116L101.739 48.6482L101.718 48.6548L101.721 48.6641L101.234 48.8097L100.579 49.0195L100.575 49.007L100.554 49.0133C100.456 49.0424 100.354 49.0729 100.246 49.1047L100.248 49.1109L99.3762 49.3582L98.4973 49.6125L98.4958 49.6073L97.7554 49.8163L97.0934 47.4719L98.7051 47.0163L98.9902 46.9338C99.3139 46.8401 99.6027 46.7549 99.8553 46.6793L100.513 46.4824L100.996 46.328L101.099 46.2947L101.124 46.2867L101.13 46.2848L101.131 46.2844L102.287 45.903L103.05 48.2166Z" fill="#0A9F76"/>
<path fill-rule="evenodd" clip-rule="evenodd" d="M60.5973 14.3951L60.7735 14.4043C64.4166 14.5955 68.2187 14.7338 71.9517 14.8695L71.9518 14.8695L71.9521 14.8695C76.9679 15.052 81.8592 15.2299 86.0731 15.5253C89.7645 15.7842 93.033 16.138 95.5098 16.6815C96.7455 16.9527 97.8393 17.2826 98.7081 17.7002C99.5468 18.1034 100.361 18.676 100.76 19.5375C101.763 21.7057 101.963 24.2509 102.2 28.8727C102.231 29.4929 102.264 30.1546 102.298 30.8624C102.526 35.5122 102.851 42.1545 103.742 52.1338C104.341 58.8363 102.149 64.9495 98.6272 70.2742L95.6215 70.3354C99.4826 65.0209 101.905 58.9417 101.316 52.3505C100.42 42.321 100.093 35.6349 99.8652 30.9819L99.8652 30.9817L99.8652 30.9813L99.8646 30.9693C99.8302 30.2672 99.7981 29.6114 99.7667 28.9974C99.5229 24.2415 99.3146 22.2158 98.5487 20.5605C98.505 20.4661 98.3095 20.2116 97.6526 19.8959C97.0258 19.5945 96.138 19.3135 94.9876 19.061C92.6921 18.5573 89.5697 18.2127 85.9027 17.9555C81.6994 17.6608 76.9071 17.4871 71.9477 17.3074C68.2736 17.1743 64.5079 17.0378 60.8221 16.8463C57.1772 17.7184 53.5129 18.534 49.9826 19.3199C45.278 20.3671 40.8114 21.3613 36.9452 22.3656C33.5544 23.2464 30.7223 24.112 28.6895 24.9913C27.6714 25.4317 26.9054 25.854 26.3822 26.2507C25.8406 26.6615 25.6901 26.9457 25.6576 27.0702C25.1972 28.8351 25.3511 30.8656 25.954 35.5895C26.0323 36.2028 26.1174 36.8578 26.2086 37.5593L26.2086 37.5595C26.8089 42.1792 27.6716 48.8176 28.5674 58.8476C28.8188 61.6629 29.5722 64.2901 30.7086 66.7312L27.8489 66.2517C26.9638 64.0074 26.3685 61.6126 26.1409 59.0643C25.2497 49.085 24.3927 42.4903 23.7928 37.8737C23.7015 37.1709 23.6161 36.514 23.5375 35.8979C22.9516 31.3072 22.6973 28.767 23.3004 26.4553C23.5338 25.5607 24.1854 24.8593 24.9101 24.3097C25.6533 23.7461 26.6178 23.2332 27.7223 22.7554C29.9349 21.7983 32.917 20.895 36.3328 20.0077C40.2112 19.0003 44.7743 17.9839 49.5354 16.9234C53.1226 16.1244 56.8221 15.3003 60.4257 14.4363L60.5973 14.3951ZM29.8743 70.3598C33.6924 76.7709 39.8525 81.7345 45.9885 85.3435C50.6965 88.1126 55.4703 90.1339 59.3454 91.4408C61.2833 92.0944 63.0085 92.5734 64.3998 92.8781C65.7416 93.172 66.903 93.3343 67.6443 93.2681C68.3816 93.2022 69.5144 92.837 70.8161 92.3079C72.1653 91.7594 73.8283 90.979 75.6803 89.9878C79.3835 88.006 83.8866 85.1583 88.1932 81.5865C91.0014 79.2574 93.7596 76.5915 96.159 73.6306L92.7188 73.9106C90.8437 75.9971 88.7774 77.937 86.638 79.7114C82.476 83.1633 78.1132 85.9227 74.5308 87.8399C72.74 88.7983 71.1551 89.5404 69.8988 90.0511C68.5948 90.5811 67.7643 90.8115 67.4276 90.8416C67.0949 90.8713 66.2594 90.7916 64.921 90.4984C63.632 90.2161 61.9936 89.763 60.1239 89.1324C56.3838 87.8711 51.7667 85.9158 47.2236 83.2437C41.8373 80.0756 36.6643 75.9678 33.1216 70.8952L29.8743 70.3598Z" fill="#0A9F76"/>
<path fill-rule="evenodd" clip-rule="evenodd" d="M22.6438 63.1285C22.6439 63.1285 22.6437 63.1284 22.6438 63.1285L22.6485 63.1298L22.6698 63.1359L22.7622 63.1617C22.846 63.1848 22.9743 63.2197 23.1474 63.2652C23.4936 63.3563 24.0192 63.49 24.7269 63.6577C26.1424 63.9931 28.2865 64.4646 31.1817 65.0032C36.9723 66.0805 45.7678 67.4265 57.7486 68.4898C69.6822 69.549 81.8147 69.2269 90.9769 68.6371C95.5548 68.3424 99.384 67.9814 102.067 67.6943C103.408 67.5507 104.463 67.4257 105.181 67.3367C105.539 67.2922 105.814 67.2568 105.998 67.2325C106.091 67.2204 106.16 67.2111 106.206 67.2048L106.258 67.1978L106.273 67.1957L106.441 68.4021C106.609 69.6086 106.608 69.6087 106.608 69.6087L106.589 69.6114L106.533 69.619C106.484 69.6256 106.411 69.6353 106.316 69.6478C106.126 69.6729 105.845 69.7091 105.48 69.7543C104.75 69.8449 103.682 69.9715 102.326 70.1166C99.6148 70.4067 95.7509 70.771 91.1334 71.0682C81.9047 71.6623 69.6369 71.9907 57.5332 70.9164C45.4766 69.8463 36.6042 68.49 30.7362 67.3983C27.8022 66.8524 25.6193 66.3728 24.1652 66.0282C23.4381 65.8559 22.8932 65.7174 22.5277 65.6212C22.3449 65.5731 22.207 65.5357 22.1135 65.5098C22.0668 65.4969 22.0312 65.487 22.0067 65.48L21.9782 65.4719L21.9702 65.4696L21.9678 65.4689C21.9674 65.4688 21.9663 65.4685 22.3051 64.2985L21.9663 65.4685C21.3202 65.2814 20.948 64.6059 21.1351 63.9597C21.3221 63.3137 21.9978 62.9416 22.6438 63.1285ZM106.441 68.4021L106.608 69.6087C107.274 69.5163 107.74 68.9011 107.648 68.2348C107.555 67.5684 106.94 67.1033 106.273 67.1957L106.441 68.4021Z" fill="#0A9F76"/>
<path d="M157.7 38.05L144.45 73H140.45L127.2 38.05H131L142.45 69.2L154 38.05H157.7ZM187.159 57.95C187.159 59.15 187.126 60.0667 187.059 60.7H164.409C164.509 62.7667 165.009 64.5333 165.909 66C166.809 67.4667 167.992 68.5833 169.459 69.35C170.926 70.0833 172.526 70.45 174.259 70.45C176.526 70.45 178.426 69.9 179.959 68.8C181.526 67.7 182.559 66.2167 183.059 64.35H186.759C186.092 67.0167 184.659 69.2 182.459 70.9C180.292 72.5667 177.559 73.4 174.259 73.4C171.692 73.4 169.392 72.8333 167.359 71.7C165.326 70.5333 163.726 68.9 162.559 66.8C161.426 64.6667 160.859 62.1833 160.859 59.35C160.859 56.5167 161.426 54.0333 162.559 51.9C163.692 49.7667 165.276 48.1333 167.309 47C169.342 45.8667 171.659 45.3 174.259 45.3C176.859 45.3 179.126 45.8667 181.059 47C183.026 48.1333 184.526 49.6667 185.559 51.6C186.626 53.5 187.159 55.6167 187.159 57.95ZM183.609 57.85C183.642 55.8167 183.226 54.0833 182.359 52.65C181.526 51.2167 180.376 50.1333 178.909 49.4C177.442 48.6667 175.842 48.3 174.109 48.3C171.509 48.3 169.292 49.1333 167.459 50.8C165.626 52.4667 164.609 54.8167 164.409 57.85H183.609ZM196.563 36V73H193.063V36H196.563ZM215.938 73.4C213.372 73.4 211.055 72.8333 208.988 71.7C206.955 70.5333 205.338 68.9 204.138 66.8C202.972 64.6667 202.388 62.1833 202.388 59.35C202.388 56.5167 202.988 54.05 204.188 51.95C205.388 49.8167 207.022 48.1833 209.088 47.05C211.155 45.8833 213.472 45.3 216.038 45.3C218.605 45.3 220.922 45.8833 222.988 47.05C225.088 48.1833 226.722 49.8167 227.888 51.95C229.088 54.05 229.688 56.5167 229.688 59.35C229.688 62.15 229.088 64.6167 227.888 66.75C226.688 68.8833 225.038 70.5333 222.938 71.7C220.838 72.8333 218.505 73.4 215.938 73.4ZM215.938 70.35C217.738 70.35 219.405 69.95 220.938 69.15C222.472 68.3167 223.705 67.0833 224.638 65.45C225.605 63.7833 226.088 61.75 226.088 59.35C226.088 56.95 225.622 54.9333 224.688 53.3C223.755 51.6333 222.522 50.4 220.988 49.6C219.455 48.7667 217.788 48.35 215.988 48.35C214.188 48.35 212.522 48.7667 210.988 49.6C209.455 50.4 208.222 51.6333 207.288 53.3C206.388 54.9333 205.938 56.95 205.938 59.35C205.938 61.75 206.388 63.7833 207.288 65.45C208.222 67.0833 209.438 68.3167 210.938 69.15C212.472 69.95 214.138 70.35 215.938 70.35Z" fill="black"/>
<path d="M246.168 73.35C243.868 73.35 241.835 72.95 240.068 72.15C238.335 71.35 236.968 70.2333 235.968 68.8C234.968 67.3667 234.435 65.7667 234.368 64H238.068C238.235 65.7 238.985 67.2 240.318 68.5C241.652 69.7667 243.602 70.4 246.168 70.4C248.535 70.4 250.402 69.8 251.768 68.6C253.168 67.3667 253.868 65.8167 253.868 63.95C253.868 62.45 253.485 61.25 252.718 60.35C251.952 59.4167 251.002 58.7333 249.868 58.3C248.735 57.8333 247.168 57.3333 245.168 56.8C242.835 56.1667 240.985 55.55 239.618 54.95C238.252 54.35 237.085 53.4167 236.118 52.15C235.152 50.8833 234.668 49.1667 234.668 47C234.668 45.2 235.135 43.6 236.068 42.2C237.002 40.7667 238.318 39.65 240.018 38.85C241.718 38.05 243.668 37.65 245.868 37.65C249.102 37.65 251.702 38.45 253.668 40.05C255.668 41.6167 256.818 43.65 257.118 46.15H253.318C253.085 44.7167 252.302 43.45 250.968 42.35C249.635 41.2167 247.835 40.65 245.568 40.65C243.468 40.65 241.718 41.2167 240.318 42.35C238.918 43.45 238.218 44.9667 238.218 46.9C238.218 48.3667 238.602 49.55 239.368 50.45C240.135 51.35 241.085 52.0333 242.218 52.5C243.385 52.9667 244.952 53.4667 246.918 54C249.185 54.6333 251.018 55.2667 252.418 55.9C253.818 56.5 255.002 57.4333 255.968 58.7C256.935 59.9667 257.418 61.6667 257.418 63.8C257.418 65.4333 256.985 66.9833 256.118 68.45C255.252 69.9167 253.968 71.1 252.268 72C250.568 72.9 248.535 73.35 246.168 73.35ZM288.382 57.95C288.382 59.15 288.348 60.0667 288.282 60.7H265.632C265.732 62.7667 266.232 64.5333 267.132 66C268.032 67.4667 269.215 68.5833 270.682 69.35C272.148 70.0833 273.748 70.45 275.482 70.45C277.748 70.45 279.648 69.9 281.182 68.8C282.748 67.7 283.782 66.2167 284.282 64.35H287.982C287.315 67.0167 285.882 69.2 283.682 70.9C281.515 72.5667 278.782 73.4 275.482 73.4C272.915 73.4 270.615 72.8333 268.582 71.7C266.548 70.5333 264.948 68.9 263.782 66.8C262.648 64.6667 262.082 62.1833 262.082 59.35C262.082 56.5167 262.648 54.0333 263.782 51.9C264.915 49.7667 266.498 48.1333 268.532 47C270.565 45.8667 272.882 45.3 275.482 45.3C278.082 45.3 280.348 45.8667 282.282 47C284.248 48.1333 285.748 49.6667 286.782 51.6C287.848 53.5 288.382 55.6167 288.382 57.95ZM284.832 57.85C284.865 55.8167 284.448 54.0833 283.582 52.65C282.748 51.2167 281.598 50.1333 280.132 49.4C278.665 48.6667 277.065 48.3 275.332 48.3C272.732 48.3 270.515 49.1333 268.682 50.8C266.848 52.4667 265.832 54.8167 265.632 57.85H284.832ZM307.085 45.2C310.352 45.2 313.018 46.2167 315.085 48.25C317.152 50.25 318.185 53.1667 318.185 57V73H314.735V57.4C314.735 54.4333 313.985 52.1667 312.485 50.6C311.018 49.0333 309.002 48.25 306.435 48.25C303.802 48.25 301.702 49.0833 300.135 50.75C298.568 52.4167 297.785 54.8667 297.785 58.1V73H294.285V45.7H297.785V50.35C298.652 48.6833 299.902 47.4167 301.535 46.55C303.168 45.65 305.018 45.2 307.085 45.2ZM329.976 48.65V65.6C329.976 67.2667 330.292 68.4167 330.926 69.05C331.559 69.6833 332.676 70 334.276 70H337.476V73H333.726C331.259 73 329.426 72.4333 328.226 71.3C327.026 70.1333 326.426 68.2333 326.426 65.6V48.65H322.626V45.7H326.426V38.85H329.976V45.7H337.476V48.65H329.976ZM346.248 50.55C347.015 48.85 348.181 47.5333 349.748 46.6C351.348 45.6667 353.298 45.2 355.598 45.2V48.85H354.648C352.115 48.85 350.081 49.5333 348.548 50.9C347.015 52.2667 346.248 54.55 346.248 57.75V73H342.748V45.7H346.248V50.55ZM382.863 45.7L366.663 85.85H363.013L368.313 72.85L357.113 45.7H360.963L370.263 69L379.263 45.7H382.863Z" fill="#0A9F76"/>
</svg>
